#tb 0: 1/1000000
0,          0,          0,        0,   414720, 0xa5cd50ca
0,      66728,      66728,        0,   414720, 0x3facd321
0,     133456,     133456,        0,   414720, 0x849e6d4b
0,     200184,     200184,        0,   414720, 0xe649363f
0,     266912,     266912,        0,   414720, 0x5bbd7b14
0,     333640,     333640,        0,   414720, 0xe246ab51
0,     400368,     400368,        0,   414720, 0x5721b22e
0,     467096,     467096,        0,   414720, 0xe391e107
0,     533824,     533824,        0,   414720, 0x04d851ff
0,     600552,     600552,        0,   414720, 0x8d80d580
0,     667280,     667280,        0,   414720, 0x5a24b0bc
0,     734008,     734008,        0,   414720, 0x06cd6960
0,     800736,     800736,        0,   414720, 0xf5ca48b4
0,     867464,     867464,        0,   414720, 0x24700f94
0,     934192,     934192,        0,   414720, 0xb0bfe451
0,    1000920,    1000920,        0,   414720, 0x00e9f3d1
0,    1067648,    1067648,        0,   414720, 0x0efbffd1
0,    1134376,    1134376,        0,   414720, 0x2ecdfc8d
0,    1201104,    1201104,        0,   414720, 0x94b531fc
0,    1267832,    1267832,        0,   414720, 0x2c2579f8
0,    1334560,    1334560,        0,   414720, 0x6c7ecfb8
0,    1401288,    1401288,        0,   414720, 0x08982527
0,    1468016,    1468016,        0,   414720, 0x5c0161b3
0,    1534744,    1534744,        0,   414720, 0x453ce413
0,    1601472,    1601472,        0,   414720, 0x634e36b2
0,    1668200,    1668200,        0,   414720, 0x401a683a
0,    1734928,    1734928,        0,   414720, 0x3c5f442e
0,    1801656,    1801656,        0,   414720, 0x075ef787
0,    1868384,    1868384,        0,   414720, 0x8501a04f
0,    1935112,    1935112,        0,   414720, 0x3620093b
0,    2001840,    2001840,        0,   414720, 0xa42d9480
0,    2068568,    2068568,        0,   414720, 0x09b150b4
0,    2135296,    2135296,        0,   414720, 0xcad407f0
0,    2202024,    2202024,        0,   414720, 0x69e5eecd
0,    2268752,    2268752,        0,   414720, 0xb92ad2d9
0,    2335480,    2335480,        0,   414720, 0xc78eaf29
0,    2402208,    2402208,        0,   414720, 0x47c3fa91
0,    2468936,    2468936,        0,   414720, 0x8847b7b8
0,    2535664,    2535664,        0,   414720, 0x864cab2f
0,    2602392,    2602392,        0,   414720, 0x78d653e2
0,    2669120,    2669120,        0,   414720, 0xda15cbd2
0,    2735848,    2735848,        0,   414720, 0xdf9ce28a
0,    2802576,    2802576,        0,   414720, 0xe88c49ca
0,    2869304,    2869304,        0,   414720, 0xd6bcbc07
0,    2936032,    2936032,        0,   414720, 0xf0b4a7bf
0,    3002760,    3002760,        0,   414720, 0x74f9bfbf
0,    3069488,    3069488,        0,   414720, 0x904ce103
0,    3136216,    3136216,        0,   414720, 0xca877e4a
0,    3202944,    3202944,        0,   414720, 0x588effd6
0,    3269672,    3269672,        0,   414720, 0x6dff8b71
0,    3336400,    3336400,        0,   414720, 0xbeaae788
0,    3403128,    3403128,        0,   414720, 0x1a4d1242
0,    3469856,    3469856,        0,   414720, 0x4ae98ea0
0,    3536584,    3536584,        0,   414720, 0x41ed6d22
0,    3603312,    3603312,        0,   414720, 0x486e70aa
0,    3670040,    3670040,        0,   414720, 0xfddc103e
0,    3736768,    3736768,        0,   414720, 0x8620f03e
0,    3803496,    3803496,        0,   414720, 0x0e4ec273
0,    3870224,    3870224,        0,   414720, 0xb2298b3e
0,    3936952,    3936952,        0,   414720, 0xb4f50176
0,    4003680,    4003680,        0,   414720, 0xb9c7a495
0,    4070408,    4070408,        0,   414720, 0xed270702
0,    4137136,    4137136,        0,   414720, 0x98b72586
0,    4203864,    4203864,        0,   414720, 0xd8977cb1
0,    4270592,    4270592,        0,   414720, 0xff3d3851
0,    4337320,    4337320,        0,   414720, 0x7e4f0424
0,    4404048,    4404048,        0,   414720, 0xa9e75006
0,    4470776,    4470776,        0,   414720, 0x8f98cba9
0,    4537504,    4537504,        0,   414720, 0x25ecd620
0,    4604232,    4604232,        0,   414720, 0x78cf5c58
0,    4670960,    4670960,        0,   414720, 0x3fb4b81a
0,    4737688,    4737688,        0,   414720, 0xd7b655fa
0,    4804416,    4804416,        0,   414720, 0xd9158db3
0,    4871144,    4871144,        0,   414720, 0x2e651852
0,    4937872,    4937872,        0,   414720, 0x9f9adb64
0,    5004600,    5004600,        0,   414720, 0xe9d16e81
0,    5071328,    5071328,        0,   414720, 0xbe73daf5
0,    5138056,    5138056,        0,   414720, 0x3d164329
0,    5204784,    5204784,        0,   414720, 0x1d5a9bc8
0,    5271512,    5271512,        0,   414720, 0x8e8debbe
0,    5338240,    5338240,        0,   414720, 0x4e7a2bf0
0,    5404968,    5404968,        0,   414720, 0x4a13804d
0,    5471696,    5471696,        0,   414720, 0x5dd188d8
0,    5538424,    5538424,        0,   414720, 0xbe7f4963
0,    5605152,    5605152,        0,   414720, 0xcff3b767
0,    5671880,    5671880,        0,   414720, 0xbbd3afa0
0,    5738608,    5738608,        0,   414720, 0xaf9dec62
0,    5805336,    5805336,        0,   414720, 0xc74816a1
0,    5872064,    5872064,        0,   414720, 0x51488bfc
0,    5938792,    5938792,        0,   414720, 0x68c10a2c
0,    6005520,    6005520,        0,   414720, 0x10179c4e
0,    6072248,    6072248,        0,   414720, 0x18d559b7
0,    6138976,    6138976,        0,   414720, 0x8257aa55
0,    6205704,    6205704,        0,   414720, 0x9ea24501
0,    6272432,    6272432,        0,   414720, 0x238605cc
0,    6339160,    6339160,        0,   414720, 0xb552deaa
0,    6405888,    6405888,        0,   414720, 0x07c3348d
0,    6472616,    6472616,        0,   414720, 0x82f4f9b0
0,    6539344,    6539344,        0,   414720, 0xf5d76bc5
0,    6606072,    6606072,        0,   414720, 0x34b3a1e6
0,    6672800,    6672800,        0,   414720, 0xda25e11b
0,    6739528,    6739528,        0,   414720, 0x2b19936b
0,    6806256,    6806256,        0,   414720, 0xe91f9f73
0,    6872984,    6872984,        0,   414720, 0x48d09aab
0,    6939712,    6939712,        0,   414720, 0xac42bf83
0,    7006440,    7006440,        0,   414720, 0x2d8ca14e
0,    7073168,    7073168,        0,   414720, 0xe65462fd
0,    7139896,    7139896,        0,   414720, 0xe5bfc929
0,    7206624,    7206624,        0,   414720, 0x66784c58
0,    7273352,    7273352,        0,   414720, 0x70dbeca8
